<?xml version="1.0" encoding="utf-8"?>
<!-- Generator: Adobe Illustrator 25.0.0, SVG Export Plug-In . SVG Version: 6.00 Build 0)  -->
<svg version="1.1" xmlns="http://www.w3.org/2000/svg" xmlns:xlink="http://www.w3.org/1999/xlink" x="0px" y="0px"
	 viewBox="0 0 808.4 712.5" style="enable-background:new 0 0 808.4 712.5;" xml:space="preserve">
<style type="text/css">
	.st0{display:none;}
	.st1{display:inline;fill:#F2F2F2;}
	.st2{display:inline;fill:#CCCCCC;}
	.st3{display:inline;fill:#FFFFFF;}
	.st4{display:inline;fill:#3F3D56;}
	.st5{display:inline;fill:#CACACA;}
	.st6{display:inline;fill:#E4E4E4;}
	.st7{display:inline;fill:#0D42FF;}
	.st8{display:inline;opacity:0.2;fill:#231F20;enable-background:new    ;}
	.st9{display:inline;fill:#FFB6B6;}
	.st10{display:inline;fill:#2F2E41;}
	.st11{fill:#FFFFFF;}
	.st12{fill:#3F3D56;}
	.st13{fill:#00A3FE;}
	.st14{opacity:0.2;fill:#231F20;enable-background:new    ;}
	.st15{display:inline;fill:#B8C1C9;}
	.st16{fill:#016EB9;}
	.st17{fill:#131F2D;}
	.st18{fill:#B8C1C9;}
	.st19{fill:#657285;}
	.st20{fill:#D36E2A;}
	.st21{fill:#EAEAEA;}
	.st22{fill:#A0462D;}
	.st23{fill:#364154;}
	.st24{fill:#FF7955;}
	.st25{fill:#EF6343;}
	.st26{fill:#B05638;}
</style>
<g id="Capa_1_copia">
</g>
<g id="Capa_1" class="st0">
	<path class="st1" d="M1364.5,631l-2-27.6c-13-6.5-27.4-9.7-41.9-9.4c20.4,15.8,18.8,47.4,32.9,69c9,13.6,23.8,22.3,40,23.7l17,9.8
		c3.9-26-3.7-52.5-20.9-72.3c-4.8-5.5-10.3-10.3-16.4-14.4C1369.5,620.4,1364.5,631,1364.5,631z"/>
	<path id="a8455189-ed55-4a18-ae95-69e4c9a5ea4d-52" class="st2" d="M1263.2,700.2h389.3c0.7,0,1.2-0.6,1.2-1.2s-0.6-1.2-1.2-1.2
		h-389.3c-0.7,0-1.2,0.6-1.2,1.2S1262.5,700.2,1263.2,700.2L1263.2,700.2z"/>
	<path class="st3" d="M1015.3,402.4v0.5h0.4C1015.6,402.8,1015.4,402.6,1015.3,402.4z M1018.2,176.1c-26,33.8-40.1,75.2-40,117.9
		c0,6.5,0.3,12.9,1,19.2c0.1,1.1,0.2,2.2,0.4,3.2c3.6,31.4,14.9,61.4,32.8,87.4c0.7,1,1.4,2,2.1,3c7.7,10.8,16.5,20.8,26.3,29.9
		c78.7,72.6,201.3,67.7,273.9-10.9c1.1-1.2,2.2-2.4,3.2-3.6c61.3-69.4,64.9-172.6,8.5-246.1c-0.8-1.1-1.7-2.2-2.5-3.2
		c-1.9-2.4-3.9-4.8-6-7.1c-1.1-1.2-2.1-2.4-3.2-3.6c-36.7-39.8-88.3-62.4-142.4-62.3c-1.9,0-3.7,0-5.5,0.1c-1.2,0-2.5,0.1-3.7,0.1
		c-55.7,2.6-107.6,29.2-142.3,72.8C1019.9,173.9,1019,175,1018.2,176.1L1018.2,176.1z M1015.7,403c-0.1-0.2-0.3-0.3-0.4-0.5v0.5
		H1015.7z"/>
	<path class="st4" d="M1014,400.5l0.5-1.1l41.2-82.9v0l1.6-3.2v0l68-137.1v0l1.6-3.2l0,0l34.5-69.4l1.6-3.3c1.2-0.1,2.5-0.1,3.7-0.1
		l-1.6,3.3l-34.5,69.6v0l-1.6,3.2v0l-69.8,140.6l0,0l-41.2,83l-1.6,3.2l-0.3,0.5l-1.6,3.3c-0.7-1-1.4-2-2.1-3L1014,400.5z"/>
	<path class="st4" d="M1058.5,313.2v3.2h-79c-0.1-1.1-0.3-2.2-0.4-3.2H1058.5z"/>
	<path class="st4" d="M1181.1,338.4v-3.2h79c0.1,1.1,0.3,2.2,0.4,3.2H1181.1z"/>
	<path class="st4" d="M1247.2,327.1h3.2v79c-1.1,0.1-2.2,0.3-3.2,0.4V327.1z"/>
	<path class="st4" d="M1326.4,176.1c-0.8-1.1-1.7-2.2-2.5-3.2h-6v-7.1c-1.1-1.2-2.1-2.4-3.2-3.6v10.7h-293.9
		c-0.9,1.1-1.7,2.2-2.5,3.2h296.5v249.6c1.1-1.2,2.2-2.4,3.2-3.6V176.1H1326.4z"/>
	<rect x="1015.3" y="399.7" class="st4" width="301" height="3.2"/>
	<path class="st2" d="M1015.3,402.4v0.5h0.4C1015.6,402.8,1015.4,402.6,1015.3,402.4z M1018.2,176.1c-26,33.8-40.1,75.2-40,117.9
		c0,6.5,0.3,12.9,1,19.2c0.1,1.1,0.2,2.2,0.4,3.2c3.6,31.4,14.9,61.4,32.8,87.4c0.7,1,1.4,2,2.1,3c7.7,10.8,16.5,20.8,26.3,29.9
		c78.7,72.6,201.3,67.7,273.9-10.9c1.1-1.2,2.2-2.4,3.2-3.6c61.3-69.4,64.9-172.6,8.5-246.1c-0.8-1.1-1.7-2.2-2.5-3.2
		c-1.9-2.4-3.9-4.8-6-7.1c-1.1-1.2-2.1-2.4-3.2-3.6c-36.7-39.8-88.3-62.4-142.4-62.3c-1.9,0-3.7,0-5.5,0.1c-1.2,0-2.5,0.1-3.7,0.1
		c-55.7,2.6-107.6,29.2-142.3,72.8C1019.9,173.9,1019,175,1018.2,176.1L1018.2,176.1z M982.8,316.4c-0.1-1.1-0.3-2.2-0.4-3.2
		c-4.9-49.1,9.4-98.3,39.9-137.1c0.9-1.1,1.7-2.2,2.6-3.2c33.8-41.2,83.3-66.4,136.5-69.5c1.2-0.1,2.5-0.1,3.7-0.2
		c2.4-0.1,4.8-0.1,7.2-0.1c54.4,0,106.2,23.2,142.4,63.9c1.1,1.2,2.2,2.5,3.2,3.7c0.6,0.7,1.2,1.4,1.8,2.2c0.9,1.1,1.7,2.2,2.6,3.2
		c56.1,71.2,54.2,172-4.4,241.1c-1,1.3-2.1,2.5-3.2,3.7c-9.8,11.1-21,20.9-33.1,29.4c-86.3,60.4-205.1,39.4-265.5-46.9
		c-0.1-0.2-0.3-0.4-0.4-0.5c-0.1-0.2-0.3-0.3-0.4-0.5c-0.5-0.7-0.9-1.3-1.4-2C997,375.3,986.3,346.5,982.8,316.4L982.8,316.4z
		 M1015.7,403c-0.1-0.2-0.3-0.3-0.4-0.5v0.5H1015.7z"/>
	<path class="st5" d="M1395.8,502.5h-193.6c-4.9,0-8.9-4-8.9-8.9v-94.4c0-4.9,4-8.9,8.9-8.9h193.7c4.9,0,8.9,4,8.9,8.9v94.4
		C1404.8,498.5,1400.8,502.4,1395.8,502.5z"/>
	<path class="st6" d="M1310.5,494.9c-42.4,0-86.6-0.4-103.1-0.7c-4.5-0.1-8.1-3.8-8.1-8.3v-86.7c0-1.6,1.3-2.9,2.9-2.9h193.6
		c1.6,0,2.9,1.3,2.9,2.9V458c-0.1,20-16.1,36.2-36.1,36.6C1347.3,494.8,1329.1,494.9,1310.5,494.9z"/>
	<path class="st5" d="M1375.8,450.5h-157.6c-2.1,0-4-1.3-4.7-3.3l-17.8-50c-0.9-2.6,0.4-5.4,3-6.3c0.5-0.2,1.1-0.3,1.7-0.3l197-0.3
		h0c2.7,0,5,2.2,5,5c0,0.7-0.1,1.3-0.4,2l-0.3-0.1l0.3,0.1l-21.6,50.3C1379.6,449.3,1377.8,450.5,1375.8,450.5z"/>
	<path class="st5" d="M1264,485.1h-54.3c-2.8,0-5-2.3-5-5.1c0-2.8,2.3-5,5-5h54.3c2.8,0,5,2.3,5,5.1
		C1269,482.9,1266.7,485.1,1264,485.1z"/>
	<circle class="st4" cx="1298.7" cy="450.5" r="12.3"/>
	<path class="st7" d="M907.7,13.1C970.8-31.3,1058-16.2,1102.5,47s89.1,228.7,57.6,324.6C1066.1,272.3,921.8,262,873.9,208
		C822.6,150.2,844.5,57.6,907.7,13.1z"/>
	<circle id="faf5c3b1-f7bb-4793-8f76-a694569c182e" class="st3" cx="990.1" cy="110.5" r="45.6"/>
	<circle id="e618366e-6f5c-4381-83a5-490aecbf791d" class="st7" cx="1198.6" cy="391.3" r="29.9"/>
	<path class="st8" d="M941.3,100c-12.7,21.7-5.4,49.7,16.4,62.4c21.7,12.7,49.7,5.4,62.4-16.4c-18.9,16.6-47.7,14.7-64.3-4.2
		c-12.9-14.8-15-36.1-5.1-53.1C946.9,91.9,943.8,95.7,941.3,100z"/>
	<path class="st8" d="M873.8,208.2c48,54.1,192.3,64.4,286.2,163.6c2.9-9.1,5.2-18.4,6.8-27.8c-93.9-90.2-230.2-101.6-276.5-153.8
		c-41.5-46.7-35-116.3,2.4-164.7C841.3,73.1,826.8,155.2,873.8,208.2z"/>
	<path class="st9" d="M1469.9,399.1l-19.4-5.9c-8.4,10.2-15.4,39.6-15.4,39.6l-26.5,43.1c-4.5,2.1-6.4,7.4-4.2,11.9
		c2.1,4.5,7.4,6.4,11.9,4.2c2.9-1.4,4.8-4.2,5.1-7.4l40.1-48.7L1469.9,399.1z"/>
	<path class="st7" d="M1469.6,403.8l3.6-29.3l-8-13.4c-3.2-5.4-9.2-8.4-15.5-7.9l0,0c-8.6,0.8-15.1,8.1-14.9,16.7
		c0.3,12.6,2.3,28.5,10,32.9l0.1,0L1469.6,403.8z"/>
	<polygon class="st9" points="1524.3,668.7 1512.6,674.3 1485.5,632.2 1502.6,623.9 	"/>
	<path class="st10" d="M1530.5,680.6l-35.7,17.2l-0.2-0.5c-3.7-7.7-0.5-16.9,7.2-20.6l0,0l4.1-8.1l14.6-0.9l3.1-1.5L1530.5,680.6z"
		/>
	<polygon class="st9" points="1437.8,684.4 1424.9,684.4 1418.8,634.7 1437.8,634.7 	"/>
	<path class="st10" d="M1438.3,697.8l-39.6,0v-0.5c0-8.5,6.9-15.4,15.4-15.4h0l7.2-5.5l13.5,5.5l3.5,0L1438.3,697.8z"/>
	<path class="st10" d="M1425,453.7l-14.8,101.9l4,13.4l-5.3,9.5l7.7,71.5l-3.1,6.9l8.8,5.4h17.9l0.9-75.5l4.4-11.1v-6.1l9-46
		l2.1,71.7l2.9,5.5c10.7,24.3,25.1,32.2,35.3,50.3l17.9-9.7l-0.4-7.2c3.6-1.8-5.4-7.1-6.3-11.1l-1.6-7l-10.4-21.6l-0.4-7.6l2.9-51.8
		l-1.3-69.7l-23.5-17.9L1425,453.7z"/>
	<circle class="st9" cx="1448.3" cy="306.9" r="23.2"/>
	<path class="st7" d="M1413.9,497.7l-0.3-0.1l4.5-14.6c-1.2-3.8-0.4-8,2.1-11.1c-0.7-1.3-3.7-7.2,1.2-12.3
		c-0.3-1.5-1.8-10.2,3.4-14.4c0,0,9.9-75.4,15.5-95.3c0.2-1.5-1.1-13.3,6.4-13.8c4-0.2,9.9-0.6,18.8-1.2c1.2-0.1,1.8,1.9,2.8,5
		c0.7,2.1-2.9,5.1-2,5l0.1,0l0.1,0c17.1,4.6,28.7,20.6,27.7,38.3l-2.6,45c0.4,1.8,8.8,53.2,6.6,58.7c-1.3,3.1,0.9,5.1,2.4,6.5
		c0.8,0.7,1.4,1.3,1.3,1.8c-0.1,0.3-0.3,0.6-0.6,0.7c-1.4,0.7-0.6,5.5,0.2,8.4l0.1,0.3l-0.3,0.1c-0.3,0.2-25.5-11.4-56.2-11.4
		C1433.5,493.4,1426.8,502.2,1413.9,497.7z"/>
	<path class="st10" d="M1466.7,321.2c-0.5-0.3-0.8-0.7-1-1.2l-0.3-1.3l1,1.1c1.7-1.4,2-4,0.5-5.7c-0.5-0.5-1-1-1.7-1.2
		c-0.4-0.1-0.9-0.3-1.4-0.3c-0.5-0.1-1-0.2-1.4-0.3c-2.2-1-3.8-3.1-3.9-5.5c-0.2-2.1,0.1-4.2,0.7-6.2c-10.3,1.6-20.7,1.3-30.8-0.9
		c-1.6-0.3-3.1-0.9-4.4-1.7c-2.5-1.5-4.6-3.6-6.1-6.1c-0.4-0.7-0.3-1.6,0.2-2.2c0.4-0.4,0.9-0.6,1.4-0.6l-0.4-1
		c-0.4-1,0.1-2.1,1.1-2.4c0.3-0.1,0.7-0.1,1-0.1l1.3,0.2l-0.1-0.9c-0.2-1,0.6-2,1.6-2.1c0.3,0,0.6,0,0.9,0.1
		c1.1,0.4,2.3-0.1,2.7-1.2c0-0.1,0.1-0.2,0.1-0.3l0.5-2.2l0-0.1c2.2-3.7,6.5-6.4,11.7-7.4c4.7-0.9,9.4-0.4,14,0c2,0,3.9,0.5,5.6,1.4
		c1.6,0.9,2.5,2.7,2.4,4.5c4.5-1.4,9.4,1.4,11.8,4.9c2.9,4.2,3.3,9.4,3.4,13.5c0.2,9.7-1.8,17.5-5.9,23.5c-0.6,1-1.5,1.8-2.5,2.3
		c-0.3,0.1-0.6,0.1-0.8,0.1C1467.5,321.5,1467.1,321.4,1466.7,321.2z"/>
	<path class="st9" d="M1467.5,412.7l-17.1-10.9c-10.9,7.5-25.5,34-25.5,34l-37.1,34.3c-4.9,0.8-8.1,5.5-7.3,10.3
		c0.8,4.9,5.5,8.1,10.3,7.3c3.2-0.5,5.8-2.7,6.9-5.7l51.8-36.1L1467.5,412.7z"/>
	<path class="st7" d="M1465.9,417.1l11.4-27.3l-4.1-15.1c-1.7-6-6.6-10.6-12.8-11.8l0,0c-8.5-1.6-16.7,3.7-18.9,12.1
		c-3.1,12.2-5.5,28.1,0.8,34.4l0.1,0.1L1465.9,417.1z"/>
</g>
<g id="Capa_2">
	<g>
		<path class="st11" d="M271.7,406.8v0.5h0.3C271.9,407.1,271.8,407,271.7,406.8z M274.3,200.6c-23.7,30.8-36.5,68.5-36.4,107.4
			c0,5.9,0.3,11.7,0.9,17.5c0.1,1,0.2,2,0.3,2.9c3.3,28.6,13.6,55.9,29.9,79.6c0.6,0.9,1.3,1.8,1.9,2.8c7,9.9,15.1,19,24,27.2
			c71.6,66.2,183.4,61.7,249.5-9.9c1-1.1,2-2.2,2.9-3.3c55.8-63.2,59.1-157.2,7.7-224.1c-0.8-1-1.5-2-2.3-2.9
			c-1.7-2.2-3.6-4.3-5.4-6.5c-1-1.1-1.9-2.2-2.9-3.3c-33.4-36.2-80.4-56.8-129.7-56.8c-1.7,0-3.4,0-5.1,0.1c-1.1,0-2.2,0.1-3.4,0.1
			c-50.7,2.4-98,26.6-129.6,66.3C275.8,198.7,275.1,199.7,274.3,200.6L274.3,200.6z M272,407.3c-0.1-0.2-0.2-0.3-0.3-0.5v0.5H272z"
			/>
		<path class="st12" d="M270.5,405l0.5-1l37.5-75.5v0l1.5-2.9v0l62-124.8v0l1.5-2.9l0,0l31.4-63.3l1.5-3c1.1-0.1,2.2-0.1,3.4-0.1
			l-1.5,3l-31.5,63.4v0l-1.5,2.9v0l-63.6,128.1l0,0l-37.5,75.6l-1.5,2.9l-0.2,0.5l-1.5,3c-0.6-0.9-1.3-1.8-1.9-2.8L270.5,405z"/>
		<path class="st12" d="M311,325.5v2.9h-71.9c-0.1-1-0.2-2-0.3-2.9H311z"/>
		<path class="st12" d="M422.7,348.5v-2.9h71.9c0.1,1,0.2,2,0.3,2.9H422.7z"/>
		<path class="st12" d="M482.9,338.2h2.9v71.9c-1,0.1-2,0.2-2.9,0.3V338.2z"/>
		<path class="st12" d="M555.1,200.6c-0.8-1-1.5-2-2.3-2.9h-5.4v-6.5c-1-1.1-1.9-2.2-2.9-3.3v9.7H276.6c-0.8,1-1.6,2-2.3,2.9h270.1
			V428c1-1.1,2-2.2,2.9-3.3V200.6H555.1z"/>
		<rect x="271.7" y="404.4" class="st12" width="274.1" height="2.9"/>
		<path class="st13" d="M173.6,52.2c57.5-40.5,137-26.7,177.5,30.8s81.1,208.3,52.4,295.7c-85.6-90.4-217-99.8-260.7-149
			C96.1,177,116.1,92.7,173.6,52.2z"/>
		<circle id="faf5c3b1-f7bb-4793-8f76-a694569c182e_1_" class="st11" cx="248.7" cy="140.9" r="41.5"/>
		<circle id="e618366e-6f5c-4381-83a5-490aecbf791d_1_" class="st13" cx="438.6" cy="396.7" r="27.2"/>
		<path class="st14" d="M204.2,131.3c-11.6,19.8-4.9,45.2,14.9,56.8c19.8,11.6,45.2,4.9,56.8-14.9c-17.2,15.1-43.5,13.4-58.6-3.8
			c-11.8-13.4-13.7-32.9-4.6-48.4C209.4,123.9,206.5,127.4,204.2,131.3z"/>
		<path class="st14" d="M142.7,229.8c43.7,49.2,175.1,58.6,260.7,149c2.7-8.3,4.7-16.7,6.1-25.3c-85.5-82.2-209.6-92.5-251.9-140.1
			c-37.8-42.6-31.9-105.9,2.2-150C113.2,106.8,100,181.6,142.7,229.8z"/>
	</g>
	<g>
		<g class="st0">
			<path class="st15" d="M390.4,209c-30.3,0-58.3,10.6-80.2,28.4c-28.7,23.4-47,59-47,98.8c0,70.2,127.2,226.4,127.2,226.4
				s57.8-70.9,95.3-138.6c18.3-32.8,31.8-64.8,31.8-87.7C517.6,265.9,460.7,209,390.4,209z M390.4,394.2
				c-32.9,0-59.5-26.5-59.5-59.4c0-8,1.6-15.7,4.5-22.7c8.9-21.6,30.1-36.8,55-36.8c32.9,0,59.5,26.6,59.5,59.5
				c0,28.4-19.9,52-46.5,57.9C399.3,393.7,394.8,394.2,390.4,394.2z"/>
		</g>
		<g>
			<polygon class="st16" points="352.4,494.2 215.9,494.2 215.9,609.8 368.9,609.8 			"/>
			<polygon class="st17" points="346.4,498.2 191.7,498.2 191.7,609.8 362.5,609.8 			"/>
			<g>
				<g>
					<g>
						<g>
							
								<rect x="279.7" y="588.5" transform="matrix(-1 -1.224647e-16 1.224647e-16 -1 580.4637 1198.3016)" class="st18" width="21" height="21.3"/>
							
								<rect x="299.9" y="588.5" transform="matrix(-1 -1.224647e-16 1.224647e-16 -1 612.4848 1198.3016)" class="st19" width="12.7" height="21.3"/>
						</g>
					</g>
				</g>
			</g>
			<g>
				<g>
					<g>
						<g>
							
								<rect x="278.6" y="561.7" transform="matrix(-1 -1.224647e-16 1.224647e-16 -1 592.08 1150.4613)" class="st18" width="34.9" height="27.1"/>
							
								<rect x="312.6" y="567.7" transform="matrix(-1 -1.224647e-16 1.224647e-16 -1 634.8504 1156.5155)" class="st19" width="9.6" height="21"/>
						</g>
					</g>
				</g>
			</g>
			<path class="st18" d="M129.6,617.9H89c-2.3,0-4.1-1.9-4.1-4.1v-13.4c0-2.3,1.9-4.1,4.1-4.1h40.6c2.3,0,4.1,1.9,4.1,4.1v13.4
				C133.8,616,131.9,617.9,129.6,617.9z"/>
			<path class="st17" d="M257.7,625c0-10.8,8.8-19.6,19.6-19.6c10.8,0,19.6,8.8,19.6,19.6c0,10.8-8.8,19.6-19.6,19.6
				C266.5,644.6,257.7,635.9,257.7,625z"/>
			<path class="st17" d="M323.6,625c0-10.8,8.8-19.6,19.6-19.6s19.6,8.8,19.6,19.6c0,10.8-8.8,19.6-19.6,19.6S323.6,635.9,323.6,625
				z"/>
			<path class="st17" d="M91.5,625c0-10.8,8.8-19.6,19.6-19.6c10.8,0,19.6,8.8,19.6,19.6c0,10.8-8.8,19.6-19.6,19.6
				C100.3,644.6,91.5,635.9,91.5,625z"/>
			<path class="st20" d="M101.2,625c0-5.5,4.4-9.9,9.9-9.9c5.5,0,9.9,4.4,9.9,9.9c0,5.5-4.4,9.9-9.9,9.9
				C105.7,634.9,101.2,630.5,101.2,625z"/>
			<path class="st19" d="M101.2,625c0-5.5,4.4-9.9,9.9-9.9c5.5,0,9.9,4.4,9.9,9.9c0,5.5-4.4,9.9-9.9,9.9
				C105.7,634.9,101.2,630.5,101.2,625z"/>
			<path class="st18" d="M108.1,625c0-1.7,1.4-3.1,3.1-3.1c1.7,0,3.1,1.4,3.1,3.1c0,1.7-1.4,3.1-3.1,3.1
				C109.4,628.1,108.1,626.7,108.1,625z"/>
			<path class="st18" d="M104.7,630.3c0-0.7,0.5-1.2,1.2-1.2c0.7,0,1.2,0.5,1.2,1.2s-0.5,1.2-1.2,1.2
				C105.3,631.5,104.7,631,104.7,630.3z"/>
			<path class="st18" d="M103.3,621.5c0-0.7,0.5-1.2,1.2-1.2c0.7,0,1.2,0.5,1.2,1.2c0,0.7-0.5,1.2-1.2,1.2
				C103.9,622.7,103.3,622.1,103.3,621.5z"/>
			<path class="st18" d="M116.4,621.5c0-0.7,0.5-1.2,1.2-1.2c0.7,0,1.2,0.5,1.2,1.2c0,0.7-0.5,1.2-1.2,1.2
				C116.9,622.7,116.4,622.1,116.4,621.5z"/>
			<path class="st18" d="M115.4,630.3c0-0.7,0.5-1.2,1.2-1.2c0.7,0,1.2,0.5,1.2,1.2s-0.5,1.2-1.2,1.2
				C115.9,631.5,115.4,631,115.4,630.3z"/>
			<path class="st18" d="M109.9,617.5c0-0.7,0.5-1.2,1.2-1.2c0.7,0,1.2,0.5,1.2,1.2c0,0.7-0.5,1.2-1.2,1.2
				C110.5,618.7,109.9,618.1,109.9,617.5z"/>
			<path class="st20" d="M267,625c0-5.5,4.4-9.9,9.9-9.9s9.9,4.4,9.9,9.9c0,5.5-4.4,9.9-9.9,9.9S267,630.5,267,625z"/>
			<path class="st19" d="M267,625c0-5.5,4.4-9.9,9.9-9.9s9.9,4.4,9.9,9.9c0,5.5-4.4,9.9-9.9,9.9S267,630.5,267,625z"/>
			<path class="st18" d="M273.9,625c0-1.7,1.4-3.1,3.1-3.1c1.7,0,3.1,1.4,3.1,3.1c0,1.7-1.4,3.1-3.1,3.1
				C275.2,628.1,273.9,626.7,273.9,625z"/>
			<path class="st18" d="M270.5,630.3c0-0.7,0.5-1.2,1.2-1.2c0.7,0,1.2,0.5,1.2,1.2s-0.5,1.2-1.2,1.2
				C271.1,631.5,270.5,631,270.5,630.3z"/>
			<path class="st18" d="M270.1,621.5c0-0.7,0.5-1.2,1.2-1.2c0.7,0,1.2,0.5,1.2,1.2c0,0.7-0.5,1.2-1.2,1.2
				C270.6,622.7,270.1,622.1,270.1,621.5z"/>
			<path class="st18" d="M281.2,630.3c0-0.7,0.5-1.2,1.2-1.2c0.7,0,1.2,0.5,1.2,1.2s-0.5,1.2-1.2,1.2
				C281.7,631.5,281.2,631,281.2,630.3z"/>
			<path class="st18" d="M266.7,617.5c0-0.7,0.5-1.2,1.2-1.2s1.2,0.5,1.2,1.2c0,0.7-0.5,1.2-1.2,1.2S266.7,618.1,266.7,617.5z"/>
			<path class="st17" d="M147.2,625c0-10.8,8.8-19.6,19.6-19.6c10.8,0,19.6,8.8,19.6,19.6c0,10.8-8.8,19.6-19.6,19.6
				C156,644.6,147.2,635.9,147.2,625z"/>
			<path class="st19" d="M110.9,519.2c0,0,10.6-16,22.9-16.2l-1.1,17.4L110.9,519.2z"/>
			<path class="st18" d="M173.6,592.5H88.4l7.1-57.5c1.2-9.3,9.1-16.4,18.5-16.4h59.5V592.5z"/>
			<path class="st19" d="M124.1,557.4h-23.9l3.2-22.7c0.7-4.7,4.6-8.2,9.4-8.2h12.1L124.1,557.4z"/>
			<path class="st21" d="M122.3,555.6h-15.7c-2.4,0-4.2-2.1-3.9-4.4l2.1-15.7c0.6-4.1,3.9-7.2,7.9-7.2h10.2L122.3,555.6z"/>
			<polygon class="st16" points="289.4,609.8 125.6,609.8 132.9,494.2 279.7,494.2 			"/>
			<polygon class="st13" points="282.9,605.4 131.6,605.4 138.4,498.6 274,498.6 281.3,585.2 			"/>
			<path class="st19" d="M140.4,592.5H88.4c-4.6,0.3-5,2.6-5,2.6L79,616.6c0,0.7,0.7,1.3,1.5,1.3h13.1c0.8,0,1.4-0.6,1.8-1.4
				c0,0,2-2.5,3.4-3.4c3.4-2.2,7-3.7,12.5-3.7c6.7,0,12.5,2.1,16.1,5.4h13.2c1.6,0,2.9-0.8,2.9-1.8v-18.6
				C143.3,593.3,142,592.5,140.4,592.5z"/>
			<path class="st16" d="M303.7,634.7h-16.5c-0.4-2-1.1-3.8-2.1-5.3c-5-8-16.6-10.4-23.2-11.2c-2.9-0.3-4.8-0.3-4.8-0.3h28.3
				c7.4,1,11.9,5,14.7,8.9C302.9,630.8,303.7,634.7,303.7,634.7z"/>
			<path class="st16" d="M368.9,634.7h-16.5c-0.4-2.3-1.3-4.2-2.5-5.9c-7.5-10.8-27.7-10.9-27.7-10.9h28.3c6.2,0.8,10.4,3.8,13.2,7
				C367.7,629.5,368.9,634.7,368.9,634.7z"/>
			<path class="st16" d="M131.7,621h236.6c2.5,0,4.6-2.1,4.6-4.6v-2c0-2.5-2.1-4.6-4.6-4.6H131.7c-2.5,0-4.6,2.1-4.6,4.6v2
				C127.1,619,129.2,621,131.7,621z"/>
			<path class="st16" d="M182,637.5h-40.1c-2.4,0-4.4-2-4.4-4.4v-16c0-2.4,2-4.4,4.4-4.4H182c2.4,0,4.4,2,4.4,4.4v16
				C186.4,635.5,184.4,637.5,182,637.5z"/>
			<g>
				<path class="st13" d="M90,546.2c0,0-2.1,11.4-2,13.3c0.1,1.9,1.9,2.8,3.2,2.8L90,546.2z"/>
				<path class="st19" d="M95,562.3h-2.2c-1.6,0-2.9-1.3-2.9-2.9v-11.3c0-1.6,1.3-2.9,2.9-2.9H95c1.6,0,2.9,1.3,2.9,2.9v11.3
					C97.8,561,96.5,562.3,95,562.3z"/>
				<path class="st21" d="M94.8,561.5h-1.6c-1.3,0-2.4-1.1-2.4-2.4v-10.4c0-1.3,1.1-2.4,2.4-2.4h1.6c1.3,0,2.4,1.1,2.4,2.4V559
					C97.2,560.4,96.1,561.5,94.8,561.5z"/>
				<g>
					<path class="st13" d="M93.9,545.6c-0.1,0-0.3-0.1-0.3-0.3v-4.8c0,0,0,0,0,0c0,0,0.3-2.8,3.2-2.7c2.6,0.1,3.8,0,3.8,0
						c0.1,0,0.3,0.1,0.3,0.3c0,0.2-0.1,0.3-0.2,0.3c0,0-1.2,0.1-3.8,0c-2.3-0.1-2.6,1.9-2.7,2.1v4.8C94.1,545.4,94,545.6,93.9,545.6
						z"/>
				</g>
			</g>
			<path class="st19" d="M121.9,564.8h-4.8c-0.7,0-1.2-0.6-1.2-1.2l0,0c0-0.7,0.6-1.2,1.2-1.2h4.8c0.7,0,1.2,0.6,1.2,1.2l0,0
				C123.1,564.2,122.6,564.8,121.9,564.8z"/>
			<g>
				<g>
					<g>
						<g>
							
								<rect x="314.6" y="588.8" transform="matrix(-1 -1.224647e-16 1.224647e-16 -1 650.3074 1198.5938)" class="st18" width="21" height="21"/>
							
								<rect x="334.8" y="588.8" transform="matrix(-1 -1.224647e-16 1.224647e-16 -1 679.2278 1198.5938)" class="st19" width="9.6" height="21"/>
						</g>
					</g>
				</g>
			</g>
			<g class="st0">
				<path class="st3" d="M168.4,545.4c0.9,0,1.7,0.1,2.4,0.4c0.7,0.2,1.3,0.6,1.7,1c0.5,0.5,0.8,1,1.1,1.6c0.2,0.6,0.4,1.4,0.4,2.1
					c0,0.9,0,1.9,0,2.8c-0.1,0.8-0.2,1.5-0.4,2.1c-0.2,0.6-0.6,1.2-1,1.6c-0.5,0.5-1,0.8-1.7,1c-0.7,0.2-1.5,0.4-2.4,0.4h-4.7
					c-0.1,0-0.3,0-0.4-0.2c-0.1-0.1-0.2-0.2-0.2-0.4V546c0-0.1,0-0.3,0.2-0.4c0.1-0.1,0.2-0.2,0.4-0.2H168.4z M171.5,550.6
					c0-0.4-0.1-0.8-0.2-1.1c-0.1-0.3-0.3-0.6-0.6-0.9c-0.3-0.3-0.6-0.5-1-0.6c-0.4-0.1-0.9-0.2-1.4-0.2h-2.5v8.5h2.6
					c0.5,0,1-0.1,1.3-0.2c0.4-0.1,0.7-0.3,0.9-0.6c0.3-0.3,0.4-0.6,0.6-0.9c0.1-0.4,0.2-0.7,0.2-1.1
					C171.6,552.5,171.6,551.6,171.5,550.6z"/>
				<path class="st3" d="M185.3,556.3c0.1,0,0.3,0.1,0.4,0.2c0.1,0.1,0.2,0.2,0.2,0.4v1.3c0,0.1-0.1,0.3-0.2,0.4
					c-0.1,0.1-0.2,0.2-0.4,0.2H177c-0.1,0-0.3,0-0.4-0.2c-0.1-0.1-0.2-0.2-0.2-0.4V546c0-0.1,0-0.3,0.2-0.4c0.1-0.1,0.2-0.2,0.4-0.2
					h8.1c0.1,0,0.3,0.1,0.4,0.2c0.1,0.1,0.2,0.2,0.2,0.4v1.3c0,0.1-0.1,0.3-0.2,0.4c-0.1,0.1-0.2,0.2-0.4,0.2H179v3h5.7
					c0.1,0,0.3,0,0.4,0.2c0.1,0.1,0.2,0.2,0.2,0.4v1.3c0,0.1-0.1,0.3-0.2,0.4c-0.1,0.1-0.2,0.2-0.4,0.2H179v3.1H185.3z"/>
				<path class="st3" d="M196.8,556.3c0.1,0,0.3,0.1,0.4,0.2c0.1,0.1,0.2,0.2,0.2,0.4v1.3c0,0.1-0.1,0.3-0.2,0.4
					c-0.1,0.1-0.2,0.2-0.4,0.2h-8.2c-0.1,0-0.3,0-0.4-0.2c-0.1-0.1-0.2-0.2-0.2-0.4V546c0-0.1,0-0.3,0.2-0.4
					c0.1-0.1,0.2-0.2,0.4-0.2h1.5c0.1,0,0.3,0.1,0.4,0.2c0.1,0.1,0.2,0.2,0.2,0.4v10.3H196.8z"/>
				<path class="st3" d="M199.7,558.6c-0.1,0-0.3,0-0.4-0.2c-0.1-0.1-0.2-0.2-0.2-0.4V546c0-0.1,0-0.3,0.2-0.4
					c0.1-0.1,0.2-0.2,0.4-0.2h1.5c0.1,0,0.3,0.1,0.4,0.2c0.1,0.1,0.2,0.2,0.2,0.4v12.1c0,0.1-0.1,0.3-0.2,0.4
					c-0.1,0.1-0.2,0.2-0.4,0.2H199.7z"/>
				<path class="st3" d="M209.4,554.9l3.2-9c0-0.1,0.1-0.2,0.2-0.3c0.1-0.1,0.2-0.2,0.4-0.2h1.4c0.1,0,0.3,0.1,0.4,0.2
					c0.1,0.1,0.2,0.2,0.2,0.4c0,0,0,0,0,0.1c0,0,0,0.1,0,0.1l-4.2,11.8c-0.1,0.2-0.2,0.4-0.3,0.5c-0.1,0.1-0.3,0.2-0.5,0.2h-1.5
					c-0.2,0-0.4-0.1-0.5-0.2c-0.1-0.1-0.2-0.3-0.3-0.5l-4.2-11.8c0-0.1,0-0.1,0-0.1c0,0,0,0,0-0.1c0-0.1,0-0.3,0.2-0.4
					c0.1-0.1,0.2-0.2,0.4-0.2h1.4c0.2,0,0.3,0.1,0.4,0.2c0.1,0.1,0.2,0.2,0.2,0.3L209.4,554.9z"/>
				<path class="st3" d="M225.9,556.3c0.1,0,0.3,0.1,0.4,0.2c0.1,0.1,0.2,0.2,0.2,0.4v1.3c0,0.1-0.1,0.3-0.2,0.4
					c-0.1,0.1-0.2,0.2-0.4,0.2h-8.3c-0.1,0-0.3,0-0.4-0.2c-0.1-0.1-0.2-0.2-0.2-0.4V546c0-0.1,0-0.3,0.2-0.4
					c0.1-0.1,0.2-0.2,0.4-0.2h8.1c0.1,0,0.3,0.1,0.4,0.2c0.1,0.1,0.2,0.2,0.2,0.4v1.3c0,0.1-0.1,0.3-0.2,0.4
					c-0.1,0.1-0.2,0.2-0.4,0.2h-6.1v3h5.7c0.1,0,0.3,0,0.4,0.2c0.1,0.1,0.2,0.2,0.2,0.4v1.3c0,0.1-0.1,0.3-0.2,0.4
					c-0.1,0.1-0.2,0.2-0.4,0.2h-5.7v3.1H225.9z"/>
				<path class="st3" d="M234.1,545.4c1.6,0,2.8,0.4,3.6,1.1c0.8,0.7,1.2,1.7,1.2,3c0,0.9-0.2,1.7-0.6,2.3c-0.4,0.6-1,1.1-1.9,1.4
					l2.6,4.6c0,0.1,0.1,0.1,0.1,0.2c0,0.1,0,0.2-0.1,0.3c-0.1,0.1-0.2,0.1-0.3,0.1H237c-0.3,0-0.4-0.1-0.6-0.2
					c-0.1-0.1-0.2-0.2-0.3-0.3l-2.5-4.4h-2.5v4.4c0,0.1-0.1,0.3-0.2,0.4c-0.1,0.1-0.2,0.2-0.4,0.2h-1.5c-0.1,0-0.3,0-0.4-0.2
					c-0.1-0.1-0.2-0.2-0.2-0.4V546c0-0.1,0-0.3,0.2-0.4c0.1-0.1,0.2-0.2,0.4-0.2H234.1z M231.2,551.4h2.7c0.7,0,1.3-0.1,1.7-0.4
					c0.4-0.3,0.6-0.7,0.6-1.4s-0.2-1.2-0.6-1.4c-0.4-0.2-1-0.4-1.7-0.4h-2.7V551.4z"/>
				<path class="st3" d="M250.8,545.4c0.1,0,0.3,0.1,0.4,0.2c0.1,0.1,0.2,0.2,0.2,0.4c0,0.1,0,0.1,0,0.2l-4.5,7.8v4.1
					c0,0.1-0.1,0.3-0.2,0.4c-0.1,0.1-0.2,0.2-0.4,0.2h-1.5c-0.1,0-0.3,0-0.4-0.2c-0.1-0.1-0.2-0.2-0.2-0.4V554l-4.5-7.8
					c0,0,0-0.1,0-0.2c0-0.1,0-0.3,0.2-0.4c0.1-0.1,0.2-0.2,0.4-0.2h1.4c0.3,0,0.4,0.1,0.6,0.2c0.1,0.1,0.2,0.2,0.2,0.3l3,5.3l3-5.3
					c0-0.1,0.1-0.2,0.2-0.3c0.1-0.1,0.3-0.2,0.6-0.2H250.8z"/>
			</g>
		</g>
		<path class="st19" d="M766.3,383.6c-17.2,0-31.1,13.9-31.1,31.1c0,17.2,31.1,55.4,31.1,55.4s31.1-38.2,31.1-55.4
			C797.5,397.6,783.5,383.6,766.3,383.6z M766.3,429c-8,0-14.6-6.5-14.6-14.6c0-8,6.5-14.6,14.6-14.6c8,0,14.6,6.5,14.6,14.6
			C780.9,422.5,774.4,429,766.3,429z"/>
		<path class="st13" d="M48,456.4c-14.5,0-26.3,11.8-26.3,26.3c0,14.5,26.3,46.7,26.3,46.7s26.3-32.2,26.3-46.7
			C74.2,468.2,62.5,456.4,48,456.4z M48,494.7c-6.8,0-12.3-5.5-12.3-12.3c0-6.8,5.5-12.3,12.3-12.3s12.3,5.5,12.3,12.3
			C60.2,489.2,54.7,494.7,48,494.7z"/>
		<g>
			<g>
				<g>
					<g>
						<path class="st22" d="M262.4,644h-31c0.3-1.1,1.4-3,4.8-3.6c4.8-0.8,13.1-3.6,14.9-9.7c0.1-0.2,0.1-0.4,0.2-0.6
							c1.5-6.5,12.2,2,12.2,2s0,0.3,0.1,0.7C263.7,635.3,264.3,642.9,262.4,644z"/>
						<path class="st23" d="M237.4,468.9c0,0,1.6,20.3,3.5,44.6c2.6,33.1,5.7,73.7,6,81.4c0.5,13.4,2.7,34.7,2.7,34.7
							s5.1,5.1,15.2,2.9c0,0,9.1-30.5,11.6-62.8c0-0.5,0.1-1.1,0.1-1.6c2.4-32.9,6.1-102.1,6.1-102.1L237.4,468.9z"/>
						<path class="st17" d="M237.4,468.9c0,0,1.6,20.3,3.5,44.6l35.6,56.3c0-0.5,0.1-1.1,0.1-1.6c2.4-32.9,6.1-102.1,6.1-102.1
							L237.4,468.9z"/>
						<path class="st23" d="M244.8,471.4c0,0,29.3,73.4,48.5,107.8c19.2,34.5,25.3,44.1,25.3,44.1s11-4.4,12-7.4
							c0,0-7.4-66.6-20.2-82.8c-7.3-9.2-15.8-36.7-16.2-46.3c-0.4-9.6-2.6-28.7-2.6-28.7L244.8,471.4z"/>
					</g>
					<path class="st24" d="M283.3,358.3c0,0-19.8,9.7-31.2,6.1c0,0,2.8-3.6,7.7-6.3c-0.4-2.3-0.7-4.3-0.9-6.1
						c-0.5-4-0.5-6.2-0.5-6.2l7.6-6.1l7.2-5.8C272.8,350.4,283.3,358.3,283.3,358.3z"/>
					<path class="st13" d="M293.7,461.9c0,1.2-2.5,2.6-3.7,3.2c-8.5,3.8-16.4,6.4-25.3,7.3c-10.6,1.1-23.1-1.3-27.4-1.2
						c-0.4,0-0.8-0.2-1.2-0.5c-0.3-0.2-0.5-13.2-0.3-29.5c0-0.7,0-1.3,0-2V439c0.1-6.4,0.3-13,0.6-19.7c0.6-14.7,1.8-28.8,3.7-36.6
						c2.3-9.2,7.6-15.3,12.4-19.8l4-3.5c4,0.8,8.1,0.6,12.3-1.5c4.6-2.2,9.6-4.8,10.4-4.1c6,4.4,9.9,14.5,12.1,27.2
						c1.2,7.3,1.8,15.5,1.8,24.1c0,3.2-0.1,6.4-0.3,9.6c-1.1,17.4,0,32.5,0.6,41.2C293.6,458.5,293.7,460.5,293.7,461.9z"/>
					<path class="st16" d="M293.4,456c-95.9-0.1-17.7-71.5-17.7-71.5l15.5-3.5c1.2,7.3,1.8,15.5,1.8,24.1c0,3.2-0.1,6.4-0.3,9.6
						C291.7,432.1,292.8,447.2,293.4,456z"/>
					<g>
						
							<rect x="175.4" y="395.8" transform="matrix(-1 -1.224647e-16 1.224647e-16 -1 410.4209 851.3376)" class="st18" width="59.6" height="59.6"/>
						
							<rect x="232.5" y="395.8" transform="matrix(-1 -1.224647e-16 1.224647e-16 -1 492.4055 851.3376)" class="st19" width="27.3" height="59.6"/>
					</g>
					<path class="st24" d="M226.1,426.5l-3.6-1.1c0,0-2.5-8.2-10.9-4.5c0,0-3.4,1.8-1.9,3.9c1.5,2.1,1.2,1,3.3,4.1
						c2.1,3.1,5.3,4.5,7.9,3.4l3,0.1L226.1,426.5z"/>
					<path class="st13" d="M283.3,358.3c0,0,21.7,34.5-1.4,74.5c-7.2,12.5-61.8,0.6-61.8,0.6s-2.1-3.8,3.6-7.9
						c0,0,36.3-6.1,40.7-7.2c3.8-0.9,1.3-36.2,5.7-46.5C274.4,361.6,283.3,358.3,283.3,358.3z"/>
					<path class="st25" d="M273.5,340.2c0,0-5,9.3-14.5,11.9c-0.5-4-0.5-6.2-0.5-6.2l7.6-6.1L273.5,340.2z"/>
					<path class="st24" d="M255,345.6c0,0,18.9,3.1,20.7-8.7c1.8-11.8,5.4-19.3-6.6-21.8c-12-2.5-15,1.6-16.6,5.4
						C251,324.4,250.1,344.5,255,345.6z"/>
					<path class="st17" d="M275.5,337.8c0,0-0.4-15.8-17.6-18.3c-11.8-1.7-10.8-10.3-9.5-11.8c0,0,15.2,0.1,24.4,2.4
						C286.7,313.5,277.6,335.4,275.5,337.8z"/>
				</g>
			</g>
			<path class="st22" d="M330.6,618.3l-0.9-1.2l-10.4,5.8c-0.1,2-0.2,4.3,0,6.3c0.1,1.4,0,2.8-0.2,4.1c-0.2,1-1.3,5.4-4.5,6.6
				c-3.7,1.3-3.9,4.1,2.3,4.1c1.1,0,2.2,0,3.3,0c3.9,0,7.2-2.7,8.3-6.4c0.4-1.5,1.2-3.1,2.5-4.9c1.6-1.9,3.6-3.6,4.2-5.7
				C336.1,623.4,330.6,618.3,330.6,618.3z"/>
		</g>
		<g>
			<g>
				<polygon class="st16" points="448,543.4 450.1,541.7 422.6,505.8 412.7,505.4 				"/>
			</g>
			<g>
				<polygon class="st16" points="484,543.4 485.7,541.7 462.9,505.8 454.7,505.4 				"/>
			</g>
			<g>
				<path class="st13" d="M651.9,449.7c0-6.8-5.4-12.3-12.1-12.3c-6.7,0-12.1,5.5-12.1,12.3c0,6.8,5.4,12.3,12.1,12.3
					C646.5,462.1,651.9,456.6,651.9,449.7z"/>
				<path class="st13" d="M498.9,616.2h122.6c1.3,0,2.4-1.1,2.4-2.4v-11.6c0-1.3-1.1-2.4-2.4-2.4H513.2c-1.3,0-2.4,1.1-2.4,2.4
					L498.9,616.2z"/>
				<path class="st17" d="M497.8,607.1c0-20.2-16.4-36.6-36.6-36.6c-20.2,0-36.6,16.4-36.6,36.6s16.4,36.6,36.6,36.6
					C481.4,643.8,497.8,627.4,497.8,607.1z"/>
				<path class="st19" d="M479.9,607.1c0-10.3-8.4-18.7-18.7-18.7c-10.3,0-18.7,8.4-18.7,18.7c0,10.3,8.4,18.7,18.7,18.7
					C471.5,625.8,479.9,617.4,479.9,607.1z"/>
				<g>
					<path class="st13" d="M649.5,555.4c5.2-1.6,10.7-2.5,16.4-2.5c4,0,8,0.4,11.7,1.3c21.7,4.8,38.5,22.7,41.9,44.9
						c0.6,4.3-2.7,8.1-7,8.1h-0.2c-2.3,0-4.2-1.8-4.5-4.1c-2.1-21.3-20.1-38-41.9-38c-6.5,0-12.7,1.5-18.2,4.1
						c-14.1,6.8-23.9,21.3-23.9,38h-12.1C611.7,582.9,627.6,562.4,649.5,555.4z"/>
				</g>
				<g>
					<path class="st13" d="M593.3,599.7l18.4,7.4c12.7-24.7,25.7-36.9,36.8-42.8c20-10.8,33.9-1.6,29.2-10.1l-34.3-72.3
						c-3.2-4.5-7.4-7.9-12.1-10.1c-5.1-2.4-10.8-3.4-16.4-2.9c-6.5,0.6-10.8,7.2-8.7,13.4c4.5,13.4,6.2,26.9,6.2,39.7
						C612.4,564.6,593.3,599.7,593.3,599.7z"/>
				</g>
				<path class="st13" d="M612,477.3l13.8-5.3c1.9,0,5.5,1.7,5.5-0.2l-2-33.8c0-1.9-1.5-3.4-3.4-3.4h-8.9c-1.9,0-9.4,3.6-8.9,10.4
					l-2.4,34C605.7,480.9,610.1,477.3,612,477.3z"/>
				<path class="st16" d="M377.3,507.1h90.4c3.1,0,5.7-2.6,5.7-5.7v-1.6c0-3.1-2.6-5.7-5.7-5.7h-90.4c-3.1,0-5.7,2.6-5.7,5.7v1.6
					C371.6,504.5,374.2,507.1,377.3,507.1z"/>
				<circle class="st17" cx="665.9" cy="607.1" r="36.6"/>
				<path class="st19" d="M647.2,607.1c0,3.1,0.8,6.1,2.2,8.7c0.1,0.2,0.2,0.3,0.3,0.5c3.2,5.7,9.3,9.5,16.2,9.5
					c10.3,0,18.7-8.4,18.7-18.7c0-7.8-4.7-14.4-11.5-17.2c-0.1,0-0.1-0.1-0.2-0.1c-2.2-0.9-4.5-1.3-7-1.3
					C655.6,588.5,647.2,596.8,647.2,607.1z"/>
				<path class="st13" d="M531.7,533.3c0,0-9.5,37.5,22.4,72.1l-78.5-5.7l10-75.7L531.7,533.3z"/>
				<path class="st13" d="M387.3,611.4c0,1.3,0.5,2.5,1.4,3.4c0.9,0.9,2.1,1.4,3.4,1.4h117.5c2.7,0,4.8-2.2,4.8-4.8l-1.6-76.9
					l-39.6-2.4C420.7,532.1,387.3,558.6,387.3,611.4z"/>
				<path class="st16" d="M627.7,449c0,1.2,0.1,2.4,0.3,3.5c1.6,8.8,9.4,15.5,18.6,15.5v-37.9C636.2,430.1,627.7,438.6,627.7,449z"
					/>
				<g>
					<path class="st17" d="M597.8,451.6c0.1,0,0.9-0.2,0.9-0.2l20.9-5.8c0.8-0.2,1.4-1.2,1.3-2.3c-0.1-1.1-0.9-1.9-1.7-1.7
						l-20.9,4.1c-0.8,0.2-1.5,1.4-1.7,2.5C596.3,450.1,597.1,451.6,597.8,451.6z"/>
				</g>
				<path class="st13" d="M648.2,565.8c-0.2,1.2-0.4,2.3-0.5,3.4c0.1,0,0.1-0.1,0.2-0.1c5.5-2.6,11.6-4.1,18.1-4.1
					c21.8,0,39.9,16.7,41.9,38c0.2,2.3,2.1,4.1,4.5,4.1h0.2c4.3,0,7.6-3.8,7-8.1c-3.3-22.1-20.1-39.9-41.7-44.8
					c-0.1,0-0.1,0-0.2-0.1l-34.3-72.3c-3.2-4.5-7.4-7.9-12.1-10.1c5.8,9.8,22,41.3,18.2,83.6c-0.3,2.9-0.6,5.9-1.1,8.9
					C648.4,564.8,648.3,565.3,648.2,565.8z"/>
				<path class="st22" d="M453,518.3v11.4c0,2,1.6,3.6,3.6,3.6h75.1c2,0,3.6-1.6,3.6-3.6v-11.4c0-2-1.6-3.6-3.6-3.6h-75.1
					C454.6,514.7,453,516.3,453,518.3z"/>
				<path class="st16" d="M396.6,616.2h113.1c0,0,6.9-41.9-18.5-56c-6.1-3.4-13.8-4.6-22.2-3.8C442.5,559,409.2,581.4,396.6,616.2z"
					/>
				<path class="st16" d="M628.1,452.5c1.6,8.8,9.4,15.5,18.6,15.5v-10.6C641.1,457.6,633.1,457,628.1,452.5z"/>
				<path class="st16" d="M648.2,565.8c-0.2,1.2-0.4,2.3-0.5,3.4c0.1,0,0.1-0.1,0.2-0.1c6.8-6.3,21.1-11.8,30-14.9
					c-0.1,0-0.1,0-0.2-0.1l-34.3-72.3c-3.2-4.5-7.4-7.9-12.1-10.1c5.8,9.8,22,41.3,18.2,83.6c-0.3,2.9-0.6,5.9-1.1,8.9
					C648.4,564.8,648.3,565.3,648.2,565.8z"/>
			</g>
			<g>
				<rect x="407.3" y="445.8" class="st22" width="58.5" height="48.3"/>
				<rect x="378.1" y="445.8" class="st26" width="58.5" height="48.3"/>
				<polygon class="st23" points="465.8,481.8 456.5,481.8 457.4,479.2 456.5,477.3 465.8,477.3 				"/>
				<polygon class="st17" points="378,456.6 387.3,456.6 386.5,454 387.3,452.1 378,452.1 				"/>
				<polygon class="st17" points="378,486.3 387.3,486.3 386.5,483.7 387.3,481.8 378,481.8 				"/>
			</g>
			<g>
				<path class="st24" d="M525.2,402c-10.1,4.1-28.6-4.7-28.6-4.7s6.1-5.4,7.3-15.7c0.1-0.5,0.1-1,0.1-1.6c1.1-0.4,3.1-1.1,5.2-1.9
					l9,6.1c0,0,0.2,3-0.1,8.3c-0.1,0.9-0.1,1.9-0.2,3C522.5,397.6,525.2,402,525.2,402z"/>
				<path class="st25" d="M518.2,384.3c0,0,0.2,3-0.1,8.3c-8.2-1.5-12.6-8.1-14.2-10.9c0.1-0.5,0.1-1,0.1-1.6
					c1.1-0.4,3.1-1.1,5.2-1.9L518.2,384.3z"/>
				<path class="st24" d="M519.8,388.6c0,0-17.4-0.6-16.9-11.4c0.5-10.8-1.4-18.2,9.8-18.3c11.2-0.1,13.1,4.1,13.8,7.8
					C527.2,370.4,524.4,388.5,519.8,388.6z"/>
				<path class="st17" d="M503.9,381.6c0,0-0.7-3.6,1.3-6c0,0-1.3-3.5,0.1-4.3c1.4-0.8,2.1,2.2,2.7,1.7s3.2-3.2,4-6.8
					c0.8-3.5,12.9-1,14.3-0.6c1.4,0.4-8-17.2-18.2-13c-10.2,4.2-11,9.4-9.8,13.7C499.4,370.5,499.3,380.7,503.9,381.6z"/>
				<path class="st17" d="M487.2,485.2c0,0,1.2,21.3,6.1,27.4c4.8,6.1,97.8,3.7,97.8,3.7s0.4-13.7-3.2-17.2
					c-3.6-3.5-20.6-13.6-74.8-19.3L487.2,485.2z"/>
				<path class="st13" d="M485.9,440.6c1.5,18.3-0.5,46.1,1.2,50.9c1.5,4.2,18.4,1.7,25.1,0.3c2.5-0.5,5.5-1.2,8.6-2.1
					c8.7-2.4,18.2-5.9,19.2-8.4c0-0.1,0.1-0.2,0.1-0.3c0.1-0.4,0.1-0.7,0-1.1c-0.3-1-1-2-1.5-3.8c-0.2-0.6-0.3-1.3-0.3-2.2
					c-0.2-3.3-0.1-7.2-0.3-11.3c0-0.4,0-0.8,0-1.1c0-0.5,0-1.1-0.1-1.6l0-0.2c0-0.1,0-0.2,0-0.3c-0.1-5.1-0.4-10.5-0.8-15.8
					c-0.1-1.7-0.2-3.3-0.4-4.9c0-0.6-0.1-1.2-0.1-1.7c-0.1-1.1-0.2-2.1-0.3-3.2c-0.8-8.2-1.8-15.5-3.1-20.1
					c-2.2-7.5-7.1-12.4-11.5-16l-3.2-2.5c-3.6,0.7-7.8,0.2-11.7-1.4c-4.1-1.8-5.6-3-6.3-2.6C491.1,397.9,484.2,418.2,485.9,440.6z"
					/>
				<path class="st22" d="M557.6,586.3c0,0,0.8,13.3,3.4,13.4c0.3,0,13,0,13,0l16.2-0.1c0,0-0.1-3.9-4.8-4.7
					c-4.7-0.8-12.6-4.1-15.5-10.4C566.8,578,557.6,586.3,557.6,586.3z"/>
				<path class="st17" d="M554.2,587.1c0,0,3.1,2.4,9.5,2.7c1.6,0.1,3.1,0,4.5-0.2c3.5-0.4,5.7-1.5,5.7-1.5l17.2-72
					c0,0-18.6-16.2-28.3-6.1c-1.3,1.3-2.3,3.6-3.3,6.6C553.3,536.5,554.2,587.1,554.2,587.1z"/>
				<path class="st16" d="M513,426.7c0,0,12,44,25.8,49.4c-0.2-0.6-0.3-1.3-0.3-2.2c-0.2-3.3-0.1-7.2-0.3-11.3c0-0.4,0-0.8,0-1.1
					c0-0.5,0-1.1-0.1-1.6l0-0.2c0-0.1,0-0.2,0-0.3c-0.1-5.1-0.4-10.5-0.8-15.8c-0.1-1.7-0.2-3.3-0.4-4.9
					C530.9,431.3,522.7,426.1,513,426.7z"/>
				<path class="st24" d="M585.2,443.7c0,0,5.2,0.4,6.6,0c1.3-0.4,7.7-4.2,10-3.4s8.1,6.7,6.6,9.4c0,0-2.7,0.1-5.2-2.5
					c-2.5-2.6-5.2-0.8-4.9-0.5c0.3,0.3,4.2,1.9,3.5,2.6c-0.7,0.7-5.8,0.5-7-0.3c-1.2-0.8-10.2,0.2-10.2,0.2L585.2,443.7z"/>
				<path class="st13" d="M513,403.5c0,0,32.6,27.8,41.2,30.4c8.6,2.7,38.9,8.6,38.9,8.6s0.8,7.2-2,9.9c0,0-38.9-2.3-43.8-3.3
					c-4.8-1-41-19.7-43.9-21.2C500.4,426.5,500.8,401.2,513,403.5z"/>
				<path class="st13" d="M495.7,367v0.2c0,0.5,0.2,0.8,0.5,1c0.1,0.1,0.2,0.1,0.3,0.1h41.3c0.5,0,0.8-0.5,0.8-1.1V367
					c0-0.6-0.4-1.1-0.8-1.1l-9.2-1.2c-0.9-6.9-5.4-12.4-11.4-14.4c0,0,0,0,0,0c-1.5-0.5-3-0.7-4.6-0.7c-8.5,0-15.4,7-16.1,15.9
					c0,0.1,0,0.2,0,0.3c-0.1,0.1-0.2,0.1-0.2,0.1C495.9,366.1,495.7,366.5,495.7,367z"/>
				<path class="st16" d="M509.7,365.5c-3.1-16.3,7.2-15.2,7.5-15.2c-1.5-0.5-3-0.7-4.6-0.7c-8.5,0-15.4,7-16.1,15.9H509.7z"/>
			</g>
		</g>
		<g>
			<path class="st23" d="M414.9,188.6c-0.5,0-0.9-0.2-1.2-0.7c-0.4-0.7-0.2-1.5,0.5-1.9c0,0,0.7-0.4,2.1-1.2
				c0.7-0.4,1.5-0.1,1.9,0.5c0.4,0.7,0.1,1.5-0.5,1.9c-1.3,0.7-2,1.1-2,1.2C415.4,188.5,415.1,188.6,414.9,188.6z"/>
			<path class="st23" d="M769.4,361C769.4,361,769.4,361,769.4,361c-0.8,0-1.4-0.6-1.4-1.4c0-0.3,0-0.6,0-0.9c0-1.3,0-2.5,0-3.8
				c0-0.8,0.6-1.4,1.3-1.4c0.8,0,1.4,0.6,1.4,1.3c0,1.3,0,2.6,0,3.9c0,0.3,0,0.6,0,0.9C770.8,360.3,770.2,361,769.4,361z
				 M769.2,351.4c-0.7,0-1.3-0.6-1.4-1.3c-0.1-1.6-0.2-3.2-0.3-4.7c-0.1-0.8,0.5-1.4,1.3-1.5c0.8-0.1,1.4,0.5,1.5,1.3
				c0.1,1.6,0.2,3.2,0.3,4.8C770.6,350.7,770,351.4,769.2,351.4C769.2,351.4,769.2,351.4,769.2,351.4z M768.5,341.9
				c-0.7,0-1.3-0.5-1.4-1.2c-0.1-1.6-0.3-3.1-0.5-4.7c-0.1-0.8,0.5-1.4,1.2-1.5c0.8-0.1,1.4,0.5,1.5,1.2c0.2,1.6,0.4,3.2,0.5,4.8
				c0.1,0.8-0.5,1.4-1.2,1.5C768.6,341.9,768.6,341.9,768.5,341.9z M767.4,332.4c-0.7,0-1.3-0.5-1.4-1.2c-0.2-1.6-0.5-3.1-0.7-4.7
				c-0.1-0.8,0.4-1.5,1.1-1.6c0.8-0.1,1.5,0.4,1.6,1.1c0.3,1.6,0.5,3.2,0.7,4.7c0.1,0.8-0.4,1.4-1.2,1.6
				C767.5,332.4,767.5,332.4,767.4,332.4z M765.9,323c-0.7,0-1.2-0.5-1.4-1.1c-0.3-1.5-0.6-3.1-0.9-4.6c-0.2-0.7,0.3-1.5,1.1-1.6
				c0.7-0.2,1.5,0.3,1.6,1.1c0.3,1.6,0.6,3.1,0.9,4.7c0.1,0.7-0.4,1.5-1.1,1.6C766,323,765.9,323,765.9,323z M763.9,313.7
				c-0.6,0-1.2-0.4-1.3-1.1c-0.4-1.5-0.7-3.1-1.1-4.6c-0.2-0.7,0.3-1.5,1-1.7c0.7-0.2,1.5,0.3,1.7,1c0.4,1.5,0.8,3.1,1.1,4.7
				c0.2,0.7-0.3,1.5-1,1.7C764.1,313.7,764,313.7,763.9,313.7z M761.6,304.4c-0.6,0-1.2-0.4-1.3-1c-0.4-1.5-0.9-3-1.3-4.6
				c-0.2-0.7,0.2-1.5,0.9-1.7c0.7-0.2,1.5,0.2,1.7,0.9c0.5,1.5,0.9,3.1,1.3,4.6c0.2,0.7-0.2,1.5-1,1.7
				C761.8,304.4,761.7,304.4,761.6,304.4z M758.9,295.3c-0.6,0-1.1-0.4-1.3-1c-0.5-1.5-1-3-1.5-4.5c-0.3-0.7,0.1-1.5,0.8-1.8
				c0.7-0.3,1.5,0.1,1.8,0.8c0.5,1.5,1,3,1.5,4.5c0.2,0.7-0.2,1.5-0.9,1.7C759.1,295.3,759,295.3,758.9,295.3z M755.7,286.3
				c-0.6,0-1.1-0.3-1.3-0.9c-0.6-1.5-1.1-3-1.7-4.4c-0.3-0.7,0.1-1.5,0.8-1.8c0.7-0.3,1.5,0.1,1.8,0.8c0.6,1.5,1.2,3,1.7,4.5
				c0.3,0.7-0.1,1.5-0.8,1.8C756,286.3,755.9,286.3,755.7,286.3z M752.1,277.5c-0.5,0-1-0.3-1.3-0.8c-0.6-1.5-1.3-2.9-1.9-4.3
				c-0.3-0.7,0-1.5,0.7-1.8c0.7-0.3,1.5,0,1.8,0.7c0.7,1.4,1.3,2.9,1.9,4.4c0.3,0.7,0,1.5-0.7,1.8
				C752.5,277.4,752.3,277.5,752.1,277.5z M748.2,268.8c-0.5,0-1-0.3-1.2-0.8c-0.7-1.4-1.4-2.8-2.1-4.2c-0.3-0.7-0.1-1.5,0.6-1.9
				c0.7-0.3,1.5-0.1,1.9,0.6c0.7,1.4,1.5,2.9,2.2,4.3c0.3,0.7,0,1.5-0.6,1.8C748.6,268.8,748.4,268.8,748.2,268.8z M743.8,260.3
				c-0.5,0-1-0.3-1.2-0.7c-0.8-1.4-1.5-2.8-2.3-4.1c-0.4-0.7-0.2-1.5,0.5-1.9c0.7-0.4,1.5-0.2,1.9,0.5c0.8,1.4,1.6,2.8,2.4,4.2
				c0.4,0.7,0.1,1.5-0.5,1.9C744.3,260.3,744,260.3,743.8,260.3z M739,252.1c-0.5,0-0.9-0.2-1.2-0.7c-0.8-1.3-1.7-2.7-2.5-4
				c-0.4-0.6-0.2-1.5,0.4-1.9c0.6-0.4,1.5-0.2,1.9,0.4c0.9,1.3,1.7,2.7,2.6,4.1c0.4,0.6,0.2,1.5-0.5,1.9
				C739.5,252,739.3,252.1,739,252.1z M733.9,244.1c-0.4,0-0.9-0.2-1.1-0.6c-0.9-1.3-1.8-2.6-2.7-3.9c-0.4-0.6-0.3-1.5,0.3-1.9
				c0.6-0.4,1.5-0.3,1.9,0.3c0.9,1.3,1.9,2.6,2.8,3.9c0.4,0.6,0.3,1.5-0.4,1.9C734.4,244,734.1,244.1,733.9,244.1z M728.3,236.4
				c-0.4,0-0.8-0.2-1.1-0.5c-0.9-1.2-1.9-2.5-2.9-3.7c-0.5-0.6-0.4-1.5,0.2-1.9c0.6-0.5,1.5-0.4,1.9,0.2c1,1.2,2,2.5,2.9,3.8
				c0.5,0.6,0.3,1.5-0.3,1.9C728.9,236.3,728.6,236.4,728.3,236.4z M722.4,228.9c-0.4,0-0.8-0.2-1.1-0.5c-1-1.2-2-2.4-3.1-3.6
				c-0.5-0.6-0.4-1.4,0.1-1.9c0.6-0.5,1.4-0.4,1.9,0.1c1.1,1.2,2.1,2.4,3.1,3.6c0.5,0.6,0.4,1.5-0.2,1.9
				C723,228.8,722.7,228.9,722.4,228.9z M716.1,221.8c-0.4,0-0.7-0.1-1-0.4c-1.1-1.1-2.2-2.3-3.3-3.4c-0.5-0.5-0.5-1.4,0-1.9
				c0.5-0.5,1.4-0.5,1.9,0c1.1,1.1,2.2,2.3,3.3,3.5c0.5,0.6,0.5,1.4-0.1,1.9C716.7,221.6,716.4,221.8,716.1,221.8z M709.4,214.9
				c-0.3,0-0.7-0.1-1-0.4c-1.1-1.1-2.3-2.2-3.4-3.3c-0.6-0.5-0.6-1.4-0.1-1.9c0.5-0.6,1.4-0.6,1.9-0.1c1.2,1.1,2.3,2.2,3.5,3.3
				c0.5,0.5,0.6,1.4,0,1.9C710.2,214.8,709.8,214.9,709.4,214.9z M702.5,208.4c-0.3,0-0.7-0.1-0.9-0.3c-1.2-1-2.4-2.1-3.6-3.1
				c-0.6-0.5-0.7-1.4-0.2-1.9c0.5-0.6,1.4-0.7,1.9-0.2c1.2,1,2.4,2.1,3.6,3.1c0.6,0.5,0.6,1.4,0.1,1.9
				C703.2,208.3,702.9,208.4,702.5,208.4z M695.2,202.3c-0.3,0-0.6-0.1-0.9-0.3c-1.2-1-2.5-2-3.7-2.9c-0.6-0.5-0.7-1.3-0.2-1.9
				c0.5-0.6,1.3-0.7,1.9-0.2c1.3,1,2.5,2,3.8,3c0.6,0.5,0.7,1.3,0.2,1.9C696,202.1,695.6,202.3,695.2,202.3z M687.7,196.4
				c-0.3,0-0.6-0.1-0.8-0.3c-1.3-0.9-2.6-1.9-3.8-2.8c-0.6-0.4-0.8-1.3-0.3-1.9c0.4-0.6,1.3-0.8,1.9-0.3c1.3,0.9,2.6,1.9,3.9,2.8
				c0.6,0.5,0.7,1.3,0.3,1.9C688.5,196.2,688.1,196.4,687.7,196.4z M679.9,191c-0.3,0-0.5-0.1-0.8-0.2c-1.3-0.9-2.6-1.7-4-2.6
				c-0.6-0.4-0.8-1.3-0.4-1.9c0.4-0.6,1.3-0.8,1.9-0.4c1.3,0.9,2.7,1.7,4,2.6c0.6,0.4,0.8,1.3,0.4,1.9
				C680.8,190.7,680.3,191,679.9,191z M671.9,185.8c-0.2,0-0.5-0.1-0.7-0.2c-1.3-0.8-2.7-1.6-4.1-2.4c-0.7-0.4-0.9-1.2-0.5-1.9
				c0.4-0.7,1.2-0.9,1.9-0.5c1.4,0.8,2.8,1.6,4.1,2.5c0.6,0.4,0.9,1.2,0.5,1.9C672.8,185.6,672.3,185.8,671.9,185.8z M421.1,185.1
				c-0.5,0-1-0.3-1.2-0.7c-0.4-0.7-0.1-1.5,0.6-1.9c1.4-0.7,2.8-1.4,4.3-2.2c0.7-0.3,1.5-0.1,1.8,0.6c0.3,0.7,0.1,1.5-0.6,1.8
				c-1.4,0.7-2.9,1.4-4.2,2.1C421.6,185.1,421.4,185.1,421.1,185.1z M663.6,181c-0.2,0-0.5-0.1-0.7-0.2c-1.4-0.8-2.8-1.5-4.2-2.3
				c-0.7-0.4-0.9-1.2-0.6-1.9c0.4-0.7,1.2-0.9,1.9-0.6c1.4,0.7,2.8,1.5,4.2,2.3c0.7,0.4,0.9,1.2,0.5,1.9
				C664.6,180.8,664.1,181,663.6,181z M429.7,180.9c-0.5,0-1-0.3-1.2-0.8c-0.3-0.7,0-1.5,0.7-1.8c1.4-0.7,2.9-1.3,4.4-2
				c0.7-0.3,1.5,0,1.8,0.7c0.3,0.7,0,1.5-0.7,1.8c-1.4,0.7-2.9,1.3-4.3,2C430.1,180.9,429.9,180.9,429.7,180.9z M438.4,177
				c-0.5,0-1-0.3-1.3-0.8c-0.3-0.7,0-1.5,0.7-1.8c1.5-0.6,2.9-1.3,4.4-1.9c0.7-0.3,1.5,0,1.8,0.7c0.3,0.7,0,1.5-0.7,1.8
				c-1.5,0.6-2.9,1.2-4.4,1.8C438.7,176.9,438.6,177,438.4,177z M655.2,176.6c-0.2,0-0.4,0-0.6-0.1c-1.4-0.7-2.8-1.4-4.3-2.1
				c-0.7-0.3-1-1.1-0.7-1.8c0.3-0.7,1.1-1,1.8-0.7c1.4,0.7,2.9,1.4,4.3,2.1c0.7,0.3,1,1.2,0.6,1.8
				C656.2,176.3,655.7,176.6,655.2,176.6z M447.2,173.3c-0.5,0-1.1-0.3-1.3-0.9c-0.3-0.7,0.1-1.5,0.8-1.8c1.5-0.6,3-1.2,4.5-1.7
				c0.7-0.3,1.5,0.1,1.8,0.8c0.3,0.7-0.1,1.5-0.8,1.8c-1.5,0.6-3,1.1-4.4,1.7C447.5,173.3,447.4,173.3,447.2,173.3z M646.6,172.5
				c-0.2,0-0.4,0-0.6-0.1c-1.4-0.6-2.9-1.3-4.3-1.9c-0.7-0.3-1-1.1-0.7-1.8s1.1-1,1.8-0.7c1.5,0.6,2.9,1.3,4.4,1.9
				c0.7,0.3,1,1.1,0.7,1.8C647.6,172.2,647.1,172.5,646.6,172.5z M456.1,170c-0.6,0-1.1-0.4-1.3-0.9c-0.3-0.7,0.1-1.5,0.8-1.8
				c1.5-0.5,3-1.1,4.5-1.6c0.7-0.2,1.5,0.1,1.7,0.9c0.2,0.7-0.1,1.5-0.9,1.7c-1.5,0.5-3,1-4.5,1.6C456.4,170,456.3,170,456.1,170z
				 M637.8,168.8c-0.2,0-0.3,0-0.5-0.1c-1.5-0.6-2.9-1.2-4.4-1.7c-0.7-0.3-1.1-1.1-0.8-1.8c0.3-0.7,1.1-1.1,1.8-0.8
				c1.5,0.6,3,1.1,4.5,1.7c0.7,0.3,1.1,1.1,0.8,1.8C638.9,168.5,638.4,168.8,637.8,168.8z M465.1,166.9c-0.6,0-1.1-0.4-1.3-1
				c-0.2-0.7,0.2-1.5,0.9-1.7c1.5-0.5,3-1,4.6-1.4c0.7-0.2,1.5,0.2,1.7,0.9c0.2,0.7-0.2,1.5-0.9,1.7c-1.5,0.5-3,0.9-4.5,1.4
				C465.4,166.9,465.3,166.9,465.1,166.9z M628.9,165.4c-0.2,0-0.3,0-0.5-0.1c-1.5-0.5-3-1-4.5-1.5c-0.7-0.2-1.1-1-0.9-1.7
				c0.2-0.7,1-1.1,1.7-0.9c1.5,0.5,3,1,4.5,1.5c0.7,0.3,1.1,1,0.8,1.8C630,165.1,629.5,165.4,628.9,165.4z M474.2,164.1
				c-0.6,0-1.1-0.4-1.3-1c-0.2-0.7,0.2-1.5,0.9-1.7c1.5-0.4,3.1-0.9,4.6-1.3c0.7-0.2,1.5,0.2,1.7,1c0.2,0.7-0.2,1.5-1,1.7
				c-1.5,0.4-3,0.8-4.6,1.3C474.5,164.1,474.4,164.1,474.2,164.1z M619.9,162.5c-0.1,0-0.3,0-0.4-0.1c-1.5-0.5-3-0.9-4.5-1.3
				c-0.7-0.2-1.2-1-1-1.7c0.2-0.7,1-1.2,1.7-1c1.5,0.4,3.1,0.9,4.6,1.3c0.7,0.2,1.1,1,0.9,1.7C621,162.1,620.5,162.5,619.9,162.5z
				 M483.4,161.6c-0.6,0-1.2-0.4-1.3-1c-0.2-0.7,0.3-1.5,1-1.7c1.5-0.4,3.1-0.8,4.6-1.2c0.7-0.2,1.5,0.3,1.7,1
				c0.2,0.7-0.3,1.5-1,1.7c-1.5,0.4-3.1,0.8-4.6,1.1C483.7,161.6,483.5,161.6,483.4,161.6z M610.7,159.9c-0.1,0-0.2,0-0.3,0
				c-1.5-0.4-3.1-0.8-4.6-1.1c-0.7-0.2-1.2-0.9-1-1.7c0.2-0.7,0.9-1.2,1.7-1c1.5,0.4,3.1,0.7,4.7,1.1c0.7,0.2,1.2,0.9,1,1.7
				C611.9,159.5,611.3,159.9,610.7,159.9z M492.7,159.4c-0.6,0-1.2-0.4-1.3-1.1c-0.2-0.7,0.3-1.5,1-1.6c1.6-0.3,3.1-0.7,4.7-1
				c0.7-0.2,1.5,0.3,1.6,1.1c0.2,0.7-0.3,1.5-1.1,1.6c-1.5,0.3-3.1,0.7-4.6,1C492.9,159.3,492.8,159.4,492.7,159.4z M601.4,157.7
				c-0.1,0-0.2,0-0.3,0c-1.5-0.3-3.1-0.6-4.6-0.9c-0.7-0.1-1.2-0.9-1.1-1.6c0.1-0.7,0.9-1.2,1.6-1.1c1.6,0.3,3.1,0.6,4.7,1
				c0.7,0.2,1.2,0.9,1.1,1.6C602.6,157.3,602.1,157.7,601.4,157.7z M502,157.4c-0.6,0-1.2-0.5-1.4-1.1c-0.1-0.7,0.3-1.5,1.1-1.6
				c1.6-0.3,3.2-0.6,4.7-0.9c0.7-0.1,1.5,0.4,1.6,1.1c0.1,0.7-0.4,1.5-1.1,1.6c-1.5,0.3-3.1,0.6-4.7,0.8
				C502.2,157.4,502.1,157.4,502,157.4z M592.1,155.9c-0.1,0-0.2,0-0.2,0c-1.6-0.3-3.1-0.5-4.7-0.7c-0.8-0.1-1.3-0.8-1.2-1.6
				c0.1-0.8,0.8-1.3,1.6-1.2c1.6,0.2,3.2,0.5,4.7,0.8c0.8,0.1,1.3,0.8,1.1,1.6C593.3,155.4,592.7,155.9,592.1,155.9z M511.4,155.8
				c-0.7,0-1.3-0.5-1.4-1.2c-0.1-0.8,0.4-1.5,1.2-1.6c1.6-0.2,3.2-0.5,4.7-0.7c0.8-0.1,1.4,0.4,1.6,1.2c0.1,0.8-0.4,1.4-1.2,1.6
				c-1.5,0.2-3.1,0.4-4.7,0.7C511.6,155.8,511.5,155.8,511.4,155.8z M582.6,154.5c-0.1,0-0.1,0-0.2,0c-1.6-0.2-3.1-0.4-4.7-0.6
				c-0.8-0.1-1.3-0.8-1.2-1.5c0.1-0.8,0.8-1.3,1.5-1.2c1.6,0.2,3.2,0.4,4.8,0.6c0.8,0.1,1.3,0.8,1.2,1.5
				C583.9,154,583.3,154.5,582.6,154.5z M520.9,154.5c-0.7,0-1.3-0.5-1.4-1.2c-0.1-0.8,0.4-1.4,1.2-1.5c1.6-0.2,3.2-0.4,4.8-0.5
				c0.8-0.1,1.4,0.5,1.5,1.2c0.1,0.8-0.5,1.4-1.2,1.5c-1.6,0.2-3.1,0.3-4.7,0.5C521,154.5,520.9,154.5,520.9,154.5z M530.3,153.5
				c-0.7,0-1.3-0.5-1.4-1.3c-0.1-0.8,0.5-1.4,1.3-1.5c1.6-0.1,3.2-0.3,4.8-0.4c0.8,0,1.4,0.5,1.5,1.3c0.1,0.8-0.5,1.4-1.3,1.5
				c-1.6,0.1-3.1,0.2-4.7,0.4C530.4,153.5,530.4,153.5,530.3,153.5z M573.2,153.5c0,0-0.1,0-0.1,0c-1.6-0.1-3.1-0.3-4.7-0.4
				c-0.8-0.1-1.3-0.7-1.3-1.5c0.1-0.8,0.7-1.3,1.5-1.3c1.6,0.1,3.2,0.2,4.8,0.4c0.8,0.1,1.3,0.7,1.3,1.5
				C574.5,153,573.9,153.5,573.2,153.5z M539.8,152.9c-0.7,0-1.3-0.6-1.4-1.3c0-0.8,0.5-1.4,1.3-1.4c1.6-0.1,3.2-0.1,4.8-0.2
				c0.8,0,1.4,0.6,1.4,1.3c0,0.8-0.6,1.4-1.3,1.4C543.1,152.8,541.5,152.8,539.8,152.9C539.9,152.9,539.9,152.9,539.8,152.9z
				 M563.7,152.9C563.6,152.9,563.6,152.9,563.7,152.9c-1.6-0.1-3.2-0.1-4.8-0.2c-0.8,0-1.4-0.7-1.3-1.4c0-0.8,0.7-1.4,1.4-1.3
				c1.6,0,3.2,0.1,4.8,0.2c0.8,0,1.3,0.7,1.3,1.4C565,152.3,564.4,152.9,563.7,152.9z M549.4,152.6c-0.8,0-1.4-0.6-1.4-1.4
				c0-0.8,0.6-1.4,1.4-1.4c1.6,0,3.2,0,4.8,0c0.8,0,1.4,0.6,1.4,1.4c0,0.8-0.6,1.4-1.4,1.4c0,0,0,0,0,0
				C552.5,152.6,551,152.6,549.4,152.6C549.4,152.6,549.4,152.6,549.4,152.6z"/>
			<path class="st23" d="M769.2,368c0,0-0.1,0-0.1,0c-0.8-0.1-1.3-0.7-1.3-1.5c0,0,0.1-0.8,0.1-2.3c0-0.8,0.7-1.3,1.4-1.3
				c0.8,0,1.4,0.7,1.3,1.4c-0.1,1.5-0.1,2.4-0.1,2.4C770.5,367.5,769.9,368,769.2,368z"/>
		</g>
		<g>
			<path class="st23" d="M252,292.6c0,0-0.1,0-0.1,0c-0.6-0.1-1.2-0.1-1.9-0.2c-0.6-0.1-1-0.6-1-1.2c0.1-0.6,0.6-1,1.2-1
				c0.6,0.1,1.2,0.1,1.9,0.2c0.6,0.1,1,0.6,1,1.2C253.1,292.2,252.6,292.6,252,292.6z"/>
			<path class="st23" d="M47.2,434.7c0,0-0.1,0-0.1,0c-0.6-0.1-1-0.6-0.9-1.2c0.2-1.2,0.3-2.5,0.5-3.8c0.1-0.6,0.7-1,1.3-0.9
				c0.6,0.1,1,0.7,0.9,1.3c-0.2,1.3-0.4,2.5-0.5,3.7C48.2,434.3,47.7,434.7,47.2,434.7z M48.3,427.2c-0.1,0-0.1,0-0.2,0
				c-0.6-0.1-1-0.7-0.9-1.3c0.2-1.2,0.5-2.5,0.7-3.7c0.1-0.6,0.7-1,1.3-0.9c0.6,0.1,1,0.7,0.9,1.3c-0.2,1.2-0.5,2.5-0.7,3.7
				C49.3,426.9,48.9,427.2,48.3,427.2z M49.8,419.8c-0.1,0-0.2,0-0.2,0c-0.6-0.1-1-0.7-0.8-1.3c0.3-1.2,0.6-2.5,0.9-3.7
				c0.1-0.6,0.7-1,1.3-0.8c0.6,0.1,1,0.7,0.8,1.3c-0.3,1.2-0.6,2.4-0.9,3.7C50.8,419.5,50.3,419.8,49.8,419.8z M51.6,412.5
				c-0.1,0-0.2,0-0.3,0c-0.6-0.2-0.9-0.8-0.8-1.3c0.3-1.2,0.7-2.4,1-3.7c0.2-0.6,0.8-0.9,1.4-0.8c0.6,0.2,0.9,0.8,0.8,1.4
				c-0.3,1.2-0.7,2.4-1,3.6C52.5,412.2,52.1,412.5,51.6,412.5z M53.7,405.2c-0.1,0-0.2,0-0.3,0c-0.6-0.2-0.9-0.8-0.7-1.4
				c0.4-1.2,0.8-2.4,1.1-3.6c0.2-0.6,0.8-0.9,1.4-0.7c0.6,0.2,0.9,0.8,0.7,1.4c-0.4,1.2-0.8,2.4-1.1,3.6
				C54.6,404.9,54.2,405.2,53.7,405.2z M56,398.1c-0.1,0-0.2,0-0.4-0.1c-0.6-0.2-0.9-0.8-0.7-1.4c0.4-1.2,0.9-2.4,1.3-3.6
				c0.2-0.6,0.8-0.9,1.4-0.6c0.6,0.2,0.9,0.8,0.6,1.4c-0.4,1.2-0.9,2.4-1.3,3.5C56.9,397.8,56.5,398.1,56,398.1z M58.7,391
				c-0.1,0-0.3,0-0.4-0.1c-0.6-0.2-0.8-0.9-0.6-1.4c0.5-1.2,0.9-2.4,1.4-3.5c0.2-0.6,0.9-0.8,1.4-0.6c0.6,0.2,0.8,0.9,0.6,1.4
				c-0.5,1.1-1,2.3-1.4,3.5C59.5,390.7,59.1,391,58.7,391z M61.6,384c-0.1,0-0.3,0-0.4-0.1c-0.6-0.2-0.8-0.9-0.6-1.4
				c0.5-1.2,1-2.3,1.6-3.5c0.3-0.5,0.9-0.8,1.5-0.5c0.5,0.3,0.8,0.9,0.5,1.5c-0.5,1.1-1.1,2.3-1.6,3.4C62.4,383.8,62,384,61.6,384z
				 M64.8,377.2c-0.2,0-0.3,0-0.5-0.1c-0.5-0.3-0.8-0.9-0.5-1.5c0.6-1.1,1.1-2.3,1.7-3.4c0.3-0.5,0.9-0.7,1.5-0.5
				c0.5,0.3,0.7,0.9,0.5,1.5c-0.6,1.1-1.1,2.2-1.7,3.3C65.6,377,65.2,377.2,64.8,377.2z M68.3,370.5c-0.2,0-0.4,0-0.5-0.1
				c-0.5-0.3-0.7-1-0.4-1.5c0.6-1.1,1.2-2.2,1.9-3.3c0.3-0.5,1-0.7,1.5-0.4c0.5,0.3,0.7,1,0.4,1.5c-0.6,1.1-1.2,2.2-1.9,3.3
				C69.1,370.3,68.7,370.5,68.3,370.5z M72.1,364c-0.2,0-0.4-0.1-0.6-0.2c-0.5-0.3-0.7-1-0.4-1.5c0.7-1.1,1.3-2.2,2-3.2
				c0.3-0.5,1-0.7,1.5-0.3c0.5,0.3,0.7,1,0.3,1.5c-0.7,1-1.3,2.1-2,3.2C72.9,363.8,72.5,364,72.1,364z M76.2,357.7
				c-0.2,0-0.4-0.1-0.6-0.2c-0.5-0.3-0.6-1-0.3-1.5c0.7-1,1.4-2.1,2.2-3.1c0.4-0.5,1-0.6,1.5-0.3c0.5,0.4,0.6,1,0.3,1.5
				c-0.7,1-1.4,2-2.1,3.1C76.9,357.5,76.6,357.7,76.2,357.7z M80.6,351.5c-0.2,0-0.5-0.1-0.7-0.2c-0.5-0.4-0.6-1.1-0.2-1.5
				c0.8-1,1.5-2,2.3-3c0.4-0.5,1.1-0.6,1.5-0.2c0.5,0.4,0.6,1.1,0.2,1.5c-0.8,1-1.5,2-2.3,3C81.3,351.4,80.9,351.5,80.6,351.5z
				 M85.3,345.6c-0.2,0-0.5-0.1-0.7-0.3c-0.5-0.4-0.5-1.1-0.1-1.5c0.8-1,1.6-1.9,2.5-2.9c0.4-0.5,1.1-0.5,1.5-0.1
				c0.5,0.4,0.5,1.1,0.1,1.5c-0.8,0.9-1.6,1.9-2.4,2.8C85.9,345.5,85.6,345.6,85.3,345.6z M90.3,340c-0.3,0-0.5-0.1-0.7-0.3
				c-0.4-0.4-0.5-1.1-0.1-1.6c0.9-0.9,1.7-1.9,2.6-2.8c0.4-0.4,1.1-0.4,1.6,0c0.4,0.4,0.4,1.1,0,1.6c-0.9,0.9-1.7,1.8-2.6,2.7
				C90.9,339.9,90.6,340,90.3,340z M95.5,334.6c-0.3,0-0.6-0.1-0.8-0.3c-0.4-0.4-0.4-1.1,0-1.6c0.9-0.9,1.8-1.8,2.8-2.6
				c0.4-0.4,1.1-0.4,1.6,0.1c0.4,0.4,0.4,1.1-0.1,1.6c-0.9,0.8-1.8,1.7-2.7,2.6C96.1,334.5,95.8,334.6,95.5,334.6z M101.1,329.5
				c-0.3,0-0.6-0.1-0.8-0.4c-0.4-0.5-0.4-1.1,0.1-1.5c0.9-0.8,1.9-1.7,2.9-2.5c0.5-0.4,1.2-0.3,1.5,0.1c0.4,0.5,0.3,1.2-0.1,1.5
				c-1,0.8-1.9,1.6-2.8,2.4C101.6,329.4,101.3,329.5,101.1,329.5z M106.9,324.6c-0.3,0-0.6-0.1-0.9-0.4c-0.4-0.5-0.3-1.2,0.2-1.5
				c1-0.8,2-1.6,3-2.3c0.5-0.4,1.2-0.3,1.5,0.2c0.4,0.5,0.3,1.2-0.2,1.5c-1,0.7-2,1.5-3,2.3C107.3,324.6,107.1,324.6,106.9,324.6z
				 M112.9,320.1c-0.3,0-0.7-0.2-0.9-0.5c-0.3-0.5-0.2-1.2,0.3-1.5c1-0.7,2.1-1.5,3.1-2.1c0.5-0.3,1.2-0.2,1.5,0.3
				c0.3,0.5,0.2,1.2-0.3,1.5c-1,0.7-2.1,1.4-3.1,2.1C113.3,320.1,113.1,320.1,112.9,320.1z M119.2,316c-0.4,0-0.7-0.2-0.9-0.5
				c-0.3-0.5-0.2-1.2,0.3-1.5c1.1-0.7,2.1-1.3,3.2-2c0.5-0.3,1.2-0.1,1.5,0.4c0.3,0.5,0.1,1.2-0.4,1.5c-1.1,0.6-2.1,1.3-3.2,2
				C119.6,315.9,119.4,316,119.2,316z M125.7,312.1c-0.4,0-0.8-0.2-1-0.6c-0.3-0.5-0.1-1.2,0.4-1.5c1.1-0.6,2.2-1.2,3.3-1.8
				c0.5-0.3,1.2-0.1,1.5,0.5c0.3,0.5,0.1,1.2-0.5,1.5c-1.1,0.6-2.2,1.2-3.3,1.8C126,312.1,125.8,312.1,125.7,312.1z M132.3,308.6
				c-0.4,0-0.8-0.2-1-0.6c-0.3-0.5,0-1.2,0.5-1.5c1.1-0.6,2.3-1.1,3.4-1.6c0.5-0.3,1.2,0,1.5,0.5c0.3,0.5,0,1.2-0.5,1.5
				c-1.1,0.5-2.3,1.1-3.4,1.6C132.6,308.6,132.5,308.6,132.3,308.6z M139.2,305.4c-0.4,0-0.8-0.2-1-0.7c-0.2-0.6,0-1.2,0.6-1.4
				c1.2-0.5,2.3-1,3.5-1.5c0.6-0.2,1.2,0,1.4,0.6c0.2,0.6,0,1.2-0.6,1.4c-1.1,0.5-2.3,1-3.4,1.5
				C139.4,305.4,139.3,305.4,139.2,305.4z M146.1,302.6c-0.4,0-0.9-0.3-1-0.7c-0.2-0.6,0.1-1.2,0.6-1.4c1.2-0.4,2.4-0.9,3.6-1.3
				c0.6-0.2,1.2,0.1,1.4,0.7c0.2,0.6-0.1,1.2-0.7,1.4c-1.2,0.4-2.4,0.8-3.5,1.3C146.4,302.5,146.3,302.6,146.1,302.6z M153.2,300.1
				c-0.5,0-0.9-0.3-1-0.8c-0.2-0.6,0.1-1.2,0.7-1.4c1.2-0.4,2.4-0.8,3.6-1.1c0.6-0.2,1.2,0.2,1.4,0.7c0.2,0.6-0.2,1.2-0.7,1.4
				c-1.2,0.4-2.4,0.7-3.6,1.1C153.5,300,153.3,300.1,153.2,300.1z M160.4,297.9c-0.5,0-0.9-0.3-1.1-0.8c-0.2-0.6,0.2-1.2,0.8-1.4
				c1.2-0.3,2.4-0.7,3.7-1c0.6-0.2,1.2,0.2,1.3,0.8c0.2,0.6-0.2,1.2-0.8,1.3c-1.2,0.3-2.4,0.6-3.6,1
				C160.6,297.9,160.5,297.9,160.4,297.9z M167.7,296c-0.5,0-0.9-0.3-1.1-0.8c-0.1-0.6,0.2-1.2,0.8-1.3c1.2-0.3,2.5-0.6,3.7-0.8
				c0.6-0.1,1.2,0.3,1.3,0.8c0.1,0.6-0.3,1.2-0.8,1.3c-1.2,0.3-2.4,0.5-3.7,0.8C167.9,296,167.8,296,167.7,296z M175.1,294.4
				c-0.5,0-1-0.4-1.1-0.9c-0.1-0.6,0.3-1.2,0.9-1.3c1.2-0.2,2.5-0.5,3.7-0.7c0.6-0.1,1.2,0.3,1.3,0.9c0.1,0.6-0.3,1.2-0.9,1.3
				c-1.2,0.2-2.5,0.4-3.7,0.7C175.2,294.4,175.2,294.4,175.1,294.4z M182.5,293.1c-0.5,0-1-0.4-1.1-0.9c-0.1-0.6,0.3-1.2,0.9-1.3
				c1.2-0.2,2.5-0.4,3.7-0.5c0.6-0.1,1.2,0.3,1.2,0.9c0.1,0.6-0.3,1.2-0.9,1.2c-1.2,0.2-2.5,0.3-3.7,0.5
				C182.6,293.1,182.6,293.1,182.5,293.1z M190,292.1c-0.5,0-1-0.4-1.1-1c-0.1-0.6,0.4-1.1,1-1.2c1.2-0.1,2.5-0.3,3.8-0.4
				c0.6-0.1,1.1,0.4,1.2,1c0.1,0.6-0.4,1.1-1,1.2c-1.2,0.1-2.5,0.3-3.7,0.4C190.1,292.1,190,292.1,190,292.1z M246.4,292
				c0,0-0.1,0-0.1,0c-1.3-0.1-2.5-0.2-3.7-0.3c-0.6-0.1-1.1-0.6-1-1.2c0.1-0.6,0.6-1.1,1.2-1c1.2,0.1,2.5,0.2,3.8,0.4
				c0.6,0.1,1,0.6,1,1.2C247.5,291.6,247,292,246.4,292z M238.9,291.4C238.9,291.4,238.9,291.4,238.9,291.4
				c-1.3-0.1-2.6-0.2-3.8-0.3c-0.6,0-1.1-0.6-1-1.2c0-0.6,0.6-1.1,1.2-1c1.3,0.1,2.5,0.2,3.8,0.3c0.6,0,1.1,0.6,1,1.2
				C240,290.9,239.5,291.4,238.9,291.4z M197.5,291.4c-0.6,0-1-0.4-1.1-1c0-0.6,0.4-1.1,1-1.2c1.2-0.1,2.5-0.2,3.8-0.3
				c0.6,0,1.1,0.4,1.2,1c0,0.6-0.4,1.1-1,1.2C200.1,291.2,198.8,291.3,197.5,291.4C197.6,291.4,197.5,291.4,197.5,291.4z
				 M231.4,290.9C231.4,290.9,231.4,290.9,231.4,290.9c-1.3-0.1-2.6-0.1-3.8-0.2c-0.6,0-1.1-0.5-1.1-1.1c0-0.6,0.5-1.1,1.1-1.1
				c1.3,0,2.5,0.1,3.8,0.2c0.6,0,1.1,0.5,1,1.2C232.5,290.5,232,290.9,231.4,290.9z M205,290.9c-0.6,0-1.1-0.5-1.1-1
				c0-0.6,0.4-1.1,1-1.2c1.3-0.1,2.5-0.1,3.8-0.2c0.6,0,1.1,0.5,1.1,1.1c0,0.6-0.5,1.1-1.1,1.1C207.6,290.8,206.3,290.8,205,290.9
				C205,290.9,205,290.9,205,290.9z M223.9,290.6C223.8,290.6,223.8,290.6,223.9,290.6c-1.3,0-2.5-0.1-3.8-0.1
				c-0.6,0-1.1-0.5-1.1-1.1c0-0.6,0.5-1.1,1.1-1.1c1.2,0,2.5,0,3.8,0.1c0.6,0,1.1,0.5,1.1,1.1C224.9,290.2,224.4,290.6,223.9,290.6z
				 M212.5,290.6c-0.6,0-1.1-0.5-1.1-1.1c0-0.6,0.5-1.1,1.1-1.1c1.2,0,2.5,0,3.8,0c0,0,0,0,0,0c0.6,0,1.1,0.5,1.1,1.1
				c0,0.6-0.5,1.1-1.1,1.1C215.1,290.6,213.8,290.6,212.5,290.6C212.6,290.6,212.6,290.6,212.5,290.6z"/>
			<path class="st23" d="M46.6,440.3C46.6,440.3,46.5,440.3,46.6,440.3c-0.7,0-1.1-0.6-1.1-1.2c0,0,0-0.7,0.2-1.9
				c0.1-0.6,0.6-1.1,1.2-1c0.6,0.1,1,0.6,1,1.2c-0.1,1.2-0.2,1.8-0.2,1.8C47.6,439.9,47.2,440.3,46.6,440.3z"/>
		</g>
	</g>
	<path class="st17" d="M806.4,646H1c-0.5,0-0.9-0.5-0.9-1.2l0,0c0-0.7,0.4-1.2,0.9-1.2h805.4c0.5,0,0.9,0.5,0.9,1.2v0
		C807.3,645.5,806.9,646,806.4,646z"/>
</g>
</svg>
